# Blender v3.2.0 OBJ File: 'Grass.blend'
# www.blender.org
mtllib Grass.mtl
o Generator.001_Plane.008
v 0.018924 -0.000210 -0.052830
v 0.036643 0.000210 -0.031476
v 0.017249 0.022344 -0.050374
v 0.033484 0.022730 -0.030807
v 0.014764 0.044779 -0.046965
v 0.029254 0.045025 -0.029530
v 0.011451 0.066941 -0.042393
v 0.023988 0.067093 -0.027333
v 0.006922 0.088739 -0.036746
v 0.017380 0.088784 -0.024222
v 0.002037 0.110324 -0.030370
v 0.010391 0.110214 -0.020451
v -0.004061 0.131470 -0.022662
v 0.002277 0.131025 -0.015394
v -0.010507 0.151918 -0.012562
v -0.006107 0.151202 -0.007855
v -0.015773 0.171962 -0.001417
v -0.013266 0.171437 0.001160
v -0.021803 0.191429 0.010176
v -0.020951 0.191249 0.011049
v -0.007698 -0.000213 -0.029453
v -0.029834 0.000213 -0.030337
v -0.008161 0.017694 -0.032463
v -0.028445 0.018086 -0.033274
v -0.008759 0.035469 -0.036458
v -0.026846 0.035740 -0.037163
v -0.009607 0.052983 -0.041556
v -0.025241 0.053170 -0.042152
v -0.010446 0.070156 -0.047938
v -0.023466 0.070247 -0.048411
v -0.011530 0.087137 -0.054914
v -0.021880 0.087096 -0.055242
v -0.012760 0.103713 -0.063304
v -0.020461 0.103397 -0.063405
v -0.015228 0.119681 -0.073157
v -0.020375 0.119142 -0.073033
v -0.018949 0.135338 -0.082853
v -0.021819 0.134940 -0.082722
v -0.022531 0.150508 -0.093223
v -0.023505 0.150371 -0.093178
v -0.055736 -0.000172 -0.019786
v -0.042468 0.000172 -0.035296
v -0.053559 0.016384 -0.018681
v -0.041402 0.016699 -0.032894
v -0.050592 0.032837 -0.017111
v -0.039763 0.033047 -0.029792
v -0.046680 0.049074 -0.015088
v -0.037329 0.049211 -0.026057
v -0.041840 0.065023 -0.012321
v -0.034068 0.065077 -0.021468
v -0.036429 0.080808 -0.009389
v -0.030284 0.080745 -0.016686
v -0.029904 0.096248 -0.005749
v -0.025432 0.095936 -0.011255
v -0.021608 0.111156 -0.002160
v -0.018752 0.110642 -0.005945
v -0.012705 0.125772 0.000438
v -0.011155 0.125393 -0.001707
v -0.003387 0.139952 0.003528
v -0.002861 0.139822 0.002800
v -0.019782 -0.000149 0.034240
v 0.001350 0.000149 0.044530
v -0.019981 0.019005 0.036340
v -0.000617 0.019279 0.045769
v -0.020472 0.038081 0.039460
v -0.003202 0.038243 0.047855
v -0.021200 0.056954 0.043771
v -0.006267 0.057041 0.051016
v -0.022495 0.075549 0.049342
v -0.010051 0.075553 0.055357
v -0.023812 0.093979 0.055603
v -0.013904 0.093857 0.060345
v -0.025605 0.112071 0.063322
v -0.018181 0.111670 0.066727
v -0.026839 0.129605 0.073021
v -0.021808 0.128978 0.075130
v -0.026801 0.146788 0.083121
v -0.023973 0.146331 0.084244
v -0.027203 0.163500 0.093844
v -0.026242 0.163343 0.094223
v 0.012368 -0.000191 0.070512
v 0.010279 0.000191 0.046052
v 0.014905 0.019754 0.069575
v 0.012990 0.020104 0.047161
v 0.018509 0.039589 0.068354
v 0.016786 0.039815 0.048371
v 0.023302 0.059178 0.066707
v 0.021798 0.059320 0.049435
v 0.029520 0.078439 0.064892
v 0.028246 0.078485 0.050512
v 0.036364 0.097509 0.062728
v 0.035302 0.097417 0.051303
v 0.044759 0.116185 0.060208
v 0.043823 0.115796 0.051728
v 0.054614 0.134238 0.056126
v 0.053791 0.133608 0.050485
v 0.064137 0.151935 0.050689
v 0.063614 0.151472 0.047551
v 0.074439 0.169118 0.045312
v 0.074260 0.168959 0.044248
v 0.038844 -0.000310 0.053196
v 0.012042 0.000310 0.035438
v 0.040547 0.025675 0.049098
v 0.015987 0.026245 0.032826
v 0.042823 0.051466 0.043677
v 0.020911 0.051862 0.029190
v 0.045618 0.076880 0.036699
v 0.026667 0.077152 0.024194
v 0.049391 0.101795 0.028134
v 0.033591 0.101929 0.017749
v 0.053307 0.126433 0.018650
v 0.040710 0.126373 0.010454
v 0.058106 0.150480 0.007300
v 0.048626 0.150023 0.001380
v 0.062469 0.173644 -0.006796
v 0.055988 0.172863 -0.010515
v 0.065159 0.196358 -0.021639
v 0.061499 0.195781 -0.023637
v 0.068529 0.218363 -0.037215
v 0.067286 0.218165 -0.037891
v 0.019417 -0.000182 -0.001073
v 0.011647 0.000182 0.019309
v 0.016849 0.017513 -0.001391
v 0.009730 0.017848 0.017286
v 0.013318 0.035101 -0.001893
v 0.006984 0.035323 0.014765
v 0.008674 0.052459 -0.002511
v 0.003211 0.052603 0.011892
v 0.002826 0.069511 -0.003545
v -0.001703 0.069567 0.008456
v -0.003655 0.086387 -0.004539
v -0.007213 0.086318 0.005015
v -0.011511 0.102898 -0.005845
v -0.014031 0.102563 0.001306
v -0.021133 0.118841 -0.006461
v -0.022646 0.118290 -0.001625
v -0.031009 0.134471 -0.005863
v -0.031798 0.134066 -0.003148
v -0.041481 0.149637 -0.005611
v -0.041747 0.149498 -0.004690
v 0.046128 -0.000182 -0.003666
v 0.055357 0.000182 0.022786
v 0.044134 0.022642 -0.002042
v 0.052590 0.022977 0.022197
v 0.041036 0.045371 0.000198
v 0.048591 0.045570 0.021804
v 0.036739 0.067853 0.003247
v 0.043282 0.067963 0.021918
v 0.030903 0.090000 0.006885
v 0.036375 0.090009 0.022425
v 0.024470 0.111947 0.011089
v 0.028868 0.111806 0.023421
v 0.016413 0.133487 0.016125
v 0.019832 0.133012 0.025240
v 0.007165 0.154357 0.023305
v 0.009651 0.153612 0.029314
v -0.001342 0.174810 0.031892
v 0.000109 0.174266 0.035217
v -0.010741 0.194699 0.040636
v -0.010248 0.194512 0.041763
vt 0.573539 0.000460
vt 0.709652 0.002378
vt 0.685389 0.105363
vt 0.560667 0.103598
vt 0.652892 0.207319
vt 0.541581 0.206194
vt 0.612436 0.308238
vt 0.516132 0.307544
vt 0.561678 0.407429
vt 0.481335 0.407223
vt 0.507984 0.505432
vt 0.443807 0.505933
vt 0.445655 0.600602
vt 0.396969 0.602634
vt 0.381248 0.692869
vt 0.347445 0.696146
vt 0.326252 0.785406
vt 0.306994 0.787807
vt 0.267215 0.876006
vt 0.260674 0.876830
vt 0.369027 0.000445
vt 0.198974 0.002394
vt 0.209647 0.084126
vt 0.365470 0.082335
vt 0.221935 0.164860
vt 0.360877 0.163618
vt 0.234258 0.244567
vt 0.354361 0.243714
vt 0.247894 0.322662
vt 0.347913 0.322245
vt 0.260079 0.399710
vt 0.339588 0.399900
vt 0.270982 0.474258
vt 0.330139 0.475700
vt 0.271641 0.546259
vt 0.311180 0.548722
vt 0.260546 0.618504
vt 0.282598 0.620325
vt 0.247600 0.689070
vt 0.255082 0.689696
vt 0.000000 0.000634
vt 0.101922 0.002204
vt 0.110115 0.077786
vt 0.016721 0.076342
vt 0.122705 0.152543
vt 0.039517 0.151584
vt 0.141402 0.226461
vt 0.069567 0.225837
vt 0.166452 0.299020
vt 0.106749 0.298772
vt 0.195524 0.370666
vt 0.148319 0.370955
vt 0.232795 0.440139
vt 0.198437 0.441566
vt 0.284110 0.507388
vt 0.262171 0.509741
vt 0.342470 0.574847
vt 0.330562 0.576576
vt 0.406180 0.640830
vt 0.402147 0.641424
vt 0.276198 0.000738
vt 0.438536 0.002101
vt 0.423425 0.089582
vt 0.274671 0.088328
vt 0.403569 0.176304
vt 0.270894 0.175567
vt 0.380023 0.262272
vt 0.265304 0.261872
vt 0.350948 0.346924
vt 0.255355 0.346909
vt 0.321353 0.430632
vt 0.245236 0.431187
vt 0.288493 0.512091
vt 0.231467 0.513924
vt 0.260637 0.591237
vt 0.221987 0.594107
vt 0.244006 0.670593
vt 0.222276 0.672686
vt 0.226568 0.748393
vt 0.219193 0.749112
vt 0.523176 0.000547
vt 0.507123 0.002291
vt 0.527951 0.093357
vt 0.542659 0.091753
vt 0.557111 0.183493
vt 0.570350 0.182459
vt 0.595618 0.272689
vt 0.607166 0.272042
vt 0.645145 0.360332
vt 0.654936 0.360122
vt 0.699355 0.446911
vt 0.707511 0.447331
vt 0.764807 0.530958
vt 0.772001 0.532737
vt 0.841384 0.612412
vt 0.847706 0.615295
vt 0.916847 0.694107
vt 0.920859 0.696220
vt 0.998630 0.774074
vt 1.000000 0.774800
vt 0.726565 0.000000
vt 0.520668 0.002838
vt 0.550977 0.121439
vt 0.739644 0.118830
vt 0.588798 0.238586
vt 0.757128 0.236775
vt 0.633015 0.354238
vt 0.778603 0.352993
vt 0.686209 0.467545
vt 0.807585 0.466932
vt 0.740900 0.579328
vt 0.837665 0.579599
vt 0.801704 0.687479
vt 0.874532 0.689568
vt 0.858264 0.791928
vt 0.908045 0.795498
vt 0.900594 0.896730
vt 0.928713 0.899370
vt 0.945052 0.999093
vt 0.954598 1.000000
vt 0.577325 0.000587
vt 0.517637 0.002252
vt 0.502905 0.083039
vt 0.557600 0.081508
vt 0.481816 0.162952
vt 0.530472 0.161938
vt 0.452827 0.241974
vt 0.494793 0.241316
vt 0.415080 0.319550
vt 0.449875 0.319294
vt 0.372753 0.396155
vt 0.400086 0.396471
vt 0.320379 0.470444
vt 0.339735 0.471975
vt 0.254199 0.542365
vt 0.265820 0.544884
vt 0.183894 0.614508
vt 0.189953 0.616359
vt 0.107460 0.685078
vt 0.109508 0.685714
vt 0.782520 0.000588
vt 0.853416 0.002250
vt 0.832162 0.106492
vt 0.767199 0.104962
vt 0.801438 0.209812
vt 0.743400 0.208903
vt 0.760656 0.312216
vt 0.710387 0.311713
vt 0.707595 0.413031
vt 0.665561 0.412990
vt 0.649928 0.512711
vt 0.616144 0.513355
vt 0.580513 0.609689
vt 0.554244 0.611859
vt 0.502302 0.703890
vt 0.483206 0.707297
vt 0.429000 0.798343
vt 0.417854 0.800829
vt 0.349438 0.890929
vt 0.345647 0.891782
vn -0.7622 -0.1258 0.6349
vn -0.7592 -0.1517 0.6329
vn -0.7507 -0.2085 0.6269
vn -0.7380 -0.2733 0.6170
vn -0.7254 -0.3248 0.6069
vn -0.7107 -0.3763 0.5944
vn -0.6869 -0.4495 0.5711
vn -0.6869 -0.4494 0.5711
vn -0.6735 -0.4868 0.5563
vn -0.6680 -0.5047 0.5469
vn -0.6612 -0.5243 0.5365
vn 0.0362 -0.1648 -0.9857
vn 0.0355 -0.1905 -0.9810
vn 0.0341 -0.2468 -0.9685
vn 0.0325 -0.3110 -0.9498
vn 0.0313 -0.3618 -0.9317
vn 0.0305 -0.4125 -0.9104
vn 0.0315 -0.4843 -0.8743
vn 0.0334 -0.5209 -0.8530
vn 0.0366 -0.5384 -0.8419
vn 0.0397 -0.5575 -0.8292
vn 0.7538 -0.1419 0.6416
vn 0.7510 -0.1678 0.6387
vn 0.7429 -0.2243 0.6307
vn 0.7303 -0.2890 0.6190
vn 0.7177 -0.3401 0.6077
vn 0.7022 -0.3913 0.5948
vn 0.6744 -0.4640 0.5744
vn 0.6744 -0.4639 0.5744
vn 0.6571 -0.5010 0.5633
vn 0.6467 -0.5187 0.5592
vn 0.6351 -0.5381 0.5541
vn -0.4343 -0.1026 0.8949
vn -0.4327 -0.1286 0.8923
vn -0.4282 -0.1856 0.8844
vn -0.4214 -0.2509 0.8715
vn -0.4147 -0.3027 0.8581
vn -0.4072 -0.3546 0.8417
vn -0.3960 -0.4285 0.8121
vn -0.3903 -0.4663 0.7938
vn -0.3894 -0.4845 0.7833
vn -0.3878 -0.5043 0.7715
vn 0.9878 -0.1297 -0.0864
vn 0.9840 -0.1556 -0.0865
vn 0.9734 -0.2123 -0.0863
vn 0.9570 -0.2771 -0.0856
vn 0.9407 -0.3285 -0.0845
vn 0.9213 -0.3799 -0.0825
vn 0.9213 -0.3800 -0.0825
vn 0.8882 -0.4530 -0.0770
vn 0.8882 -0.4529 -0.0770
vn 0.8686 -0.4902 -0.0725
vn 0.8586 -0.5081 -0.0679
vn 0.8471 -0.5277 -0.0633
vn 0.5420 -0.1654 -0.8239
vn 0.5390 -0.1912 -0.8203
vn 0.5312 -0.2475 -0.8103
vn 0.5202 -0.3117 -0.7951
vn 0.5098 -0.3624 -0.7803
vn 0.4981 -0.4131 -0.7624
vn 0.4981 -0.4132 -0.7624
vn 0.4802 -0.4849 -0.7310
vn 0.4707 -0.5214 -0.7117
vn 0.4676 -0.5390 -0.7006
vn 0.4637 -0.5581 -0.6881
vn -0.9260 -0.1407 -0.3505
vn -0.9223 -0.1665 -0.3486
vn -0.9121 -0.2231 -0.3439
vn -0.8964 -0.2877 -0.3371
vn -0.8964 -0.2878 -0.3371
vn -0.8807 -0.3389 -0.3308
vn -0.8619 -0.3902 -0.3238
vn -0.8289 -0.4628 -0.3141
vn -0.8290 -0.4628 -0.3141
vn -0.8089 -0.4999 -0.3094
vn -0.7978 -0.5177 -0.3091
vn -0.7852 -0.5371 -0.3082
vn -0.9385 -0.1054 0.3289
vn -0.9354 -0.1314 0.3282
vn -0.9265 -0.1884 0.3257
vn -0.9124 -0.2536 0.3213
vn -0.8981 -0.3053 0.3165
vn -0.8810 -0.3572 0.3101
vn -0.8521 -0.4311 0.2969
vn -0.8521 -0.4310 0.2969
vn -0.8351 -0.4688 0.2879
vn -0.8270 -0.4869 0.2811
vn -0.8174 -0.5067 0.2739
usemtl Material.001
s 1
f 1/1/1 2/2/1 4/3/2 3/4/2
f 3/4/2 4/3/2 6/5/3 5/6/3
f 5/6/3 6/5/3 8/7/4 7/8/4
f 7/8/4 8/7/4 10/9/5 9/10/5
f 9/10/5 10/9/5 12/11/6 11/12/6
f 11/12/6 12/11/6 14/13/7 13/14/8
f 13/14/8 14/13/7 16/15/9 15/16/9
f 15/16/9 16/15/9 18/17/10 17/18/10
f 17/18/10 18/17/10 20/19/11 19/20/11
f 21/21/12 22/22/12 24/23/13 23/24/13
f 23/24/13 24/23/13 26/25/14 25/26/14
f 25/26/14 26/25/14 28/27/15 27/28/15
f 27/28/15 28/27/15 30/29/16 29/30/16
f 29/30/16 30/29/16 32/31/17 31/32/17
f 31/32/17 32/31/17 34/33/18 33/34/18
f 33/34/18 34/33/18 36/35/19 35/36/19
f 35/36/19 36/35/19 38/37/20 37/38/20
f 37/38/20 38/37/20 40/39/21 39/40/21
f 41/41/22 42/42/22 44/43/23 43/44/23
f 43/44/23 44/43/23 46/45/24 45/46/24
f 45/46/24 46/45/24 48/47/25 47/48/25
f 47/48/25 48/47/25 50/49/26 49/50/26
f 49/50/26 50/49/26 52/51/27 51/52/27
f 51/52/27 52/51/27 54/53/28 53/54/29
f 53/54/29 54/53/28 56/55/30 55/56/30
f 55/56/30 56/55/30 58/57/31 57/58/31
f 57/58/31 58/57/31 60/59/32 59/60/32
f 61/61/33 62/62/33 64/63/34 63/64/34
f 63/64/34 64/63/34 66/65/35 65/66/35
f 65/66/35 66/65/35 68/67/36 67/68/36
f 67/68/36 68/67/36 70/69/37 69/70/37
f 69/70/37 70/69/37 72/71/38 71/72/38
f 71/72/38 72/71/38 74/73/39 73/74/39
f 73/74/39 74/73/39 76/75/40 75/76/40
f 75/76/40 76/75/40 78/77/41 77/78/41
f 77/78/41 78/77/41 80/79/42 79/80/42
f 81/81/43 82/82/43 84/83/44 83/84/44
f 83/84/44 84/83/44 86/85/45 85/86/45
f 85/86/45 86/85/45 88/87/46 87/88/46
f 87/88/46 88/87/46 90/89/47 89/90/47
f 89/90/47 90/89/47 92/91/48 91/92/49
f 91/92/49 92/91/48 94/93/50 93/94/51
f 93/94/51 94/93/50 96/95/52 95/96/52
f 95/96/52 96/95/52 98/97/53 97/98/53
f 97/98/53 98/97/53 100/99/54 99/100/54
f 101/101/55 102/102/55 104/103/56 103/104/56
f 103/104/56 104/103/56 106/105/57 105/106/57
f 105/106/57 106/105/57 108/107/58 107/108/58
f 107/108/58 108/107/58 110/109/59 109/110/59
f 109/110/59 110/109/59 112/111/60 111/112/61
f 111/112/61 112/111/60 114/113/62 113/114/62
f 113/114/62 114/113/62 116/115/63 115/116/63
f 115/116/63 116/115/63 118/117/64 117/118/64
f 117/118/64 118/117/64 120/119/65 119/120/65
f 121/121/66 122/122/66 124/123/67 123/124/67
f 123/124/67 124/123/67 126/125/68 125/126/68
f 125/126/68 126/125/68 128/127/69 127/128/70
f 127/128/70 128/127/69 130/129/71 129/130/71
f 129/130/71 130/129/71 132/131/72 131/132/72
f 131/132/72 132/131/72 134/133/73 133/134/74
f 133/134/74 134/133/73 136/135/75 135/136/75
f 135/136/75 136/135/75 138/137/76 137/138/76
f 137/138/76 138/137/76 140/139/77 139/140/77
f 141/141/78 142/142/78 144/143/79 143/144/79
f 143/144/79 144/143/79 146/145/80 145/146/80
f 145/146/80 146/145/80 148/147/81 147/148/81
f 147/148/81 148/147/81 150/149/82 149/150/82
f 149/150/82 150/149/82 152/151/83 151/152/83
f 151/152/83 152/151/83 154/153/84 153/154/85
f 153/154/85 154/153/84 156/155/86 155/156/86
f 155/156/86 156/155/86 158/157/87 157/158/87
f 157/158/87 158/157/87 160/159/88 159/160/88
